<?xml version="1.0" encoding="utf-8"?>
<!-- Generator: Adobe Illustrator 16.0.0, SVG Export Plug-In . SVG Version: 6.00 Build 0)  -->
<!DOCTYPE svg PUBLIC "-//W3C//DTD SVG 1.1//EN" "http://www.w3.org/Graphics/SVG/1.1/DTD/svg11.dtd">
<svg version="1.1" id="Layer_1" xmlns="http://www.w3.org/2000/svg" xmlns:xlink="http://www.w3.org/1999/xlink" x="0px" y="0px"
	stroke="#444" width="30px" height="30px" viewBox="0 0 30 30" enable-background="new 0 0 30 30" xml:space="preserve">
<g transform="translate(0,-952.36218)">
	<path d="M14.883,957.285c-5.646,0-10.23,4.583-10.23,10.23c0,5.646,4.584,10.23,10.23,10.23s10.23-4.584,10.23-10.23
		C25.113,961.868,20.529,957.285,14.883,957.285L14.883,957.285z M14.883,957.784c5.377,0,9.73,4.354,9.73,9.731
		c0,5.376-4.354,9.731-9.73,9.731s-9.731-4.354-9.731-9.731C5.151,962.138,9.506,957.784,14.883,957.784z"/>
</g>
<path d="M19.3,20.664c0.098-0.098,0.098-0.262,0-0.359l-4.693-4.693V8.485c0-0.138-0.113-0.249-0.25-0.249s-0.25,0.111-0.25,0.249
	v7.236c0,0.068,0.024,0.134,0.07,0.18"/>
</svg>
