<?xml version="1.0" encoding="utf-8"?>
<!-- Generator: Adobe Illustrator 16.0.0, SVG Export Plug-In . SVG Version: 6.00 Build 0)  -->
<!DOCTYPE svg PUBLIC "-//W3C//DTD SVG 1.1//EN" "http://www.w3.org/Graphics/SVG/1.1/DTD/svg11.dtd">
<svg version="1.1" id="Layer_1" xmlns="http://www.w3.org/2000/svg" xmlns:xlink="http://www.w3.org/1999/xlink" x="0px" y="0px"
	 width="30px" height="30px" viewBox="0 0 30 30" enable-background="new 0 0 30 30" xml:space="preserve">
<path d="M25.028,12.752L25.028,12.752v-0.035c-0.067-0.207-0.14-0.421-0.22-0.644l-0.061-0.146
	c-0.067-0.166-0.138-0.332-0.213-0.496l-0.075-0.166c-0.088-0.187-0.18-0.368-0.278-0.546c-0.037-0.069-0.081-0.138-0.118-0.21
	c-0.072-0.122-0.146-0.242-0.22-0.359c-0.031-0.052-0.059-0.104-0.093-0.153V9.98c-3.157-4.756-9.57-6.056-14.328-2.898
	c-1.15,0.763-2.135,1.749-2.9,2.898v0.017c-0.03,0.05-0.059,0.102-0.094,0.153c-0.074,0.12-0.148,0.238-0.221,0.359
	c-0.038,0.069-0.081,0.141-0.121,0.21c-0.098,0.18-0.191,0.362-0.278,0.546l-0.075,0.166c-0.074,0.164-0.146,0.33-0.213,0.502
	l-0.05,0.128c-0.08,0.208-0.156,0.426-0.223,0.653v0.025l0,0c-1.617,5.474,1.506,11.223,6.979,12.845
	c0.464,0.136,0.935,0.238,1.412,0.312h0.023c0.218,0.03,0.438,0.052,0.659,0.071h0.145c0.229,0,0.458,0.024,0.689,0.024
	s0.459,0,0.688-0.024h0.142c0.226-0.02,0.443-0.041,0.661-0.071h0.023c5.648-0.841,9.545-6.099,8.704-11.745
	c-0.069-0.477-0.176-0.948-0.312-1.411L25.028,12.752z M16.242,25.331c-0.147,0.017-0.297,0.032-0.443,0.04h-0.122
	c-0.373,0.023-0.746,0.023-1.117,0h-0.118c-0.146,0-0.299-0.021-0.444-0.04H13.94c-0.505-5.261-3.496-9.963-8.051-12.648
	l0.034-0.099c0.043-0.121,0.086-0.242,0.129-0.36l0.074-0.19c0.043-0.1,0.086-0.203,0.132-0.313c0.049-0.11,0.061-0.138,0.096-0.208
	c0.034-0.067,0.097-0.194,0.147-0.29c0.049-0.097,0.137-0.261,0.213-0.39c0.039-0.072,0.08-0.14,0.123-0.213l0.056-0.082
	l2.486,0.926c3.708,1.375,7.785,1.375,11.494,0l2.488-0.926l0.055,0.082c0.04,0.07,0.084,0.141,0.125,0.213
	c0.069,0.125,0.142,0.254,0.209,0.383c0.049,0.095,0.1,0.197,0.151,0.297c0.044,0.101,0.06,0.135,0.089,0.201
	s0.089,0.207,0.134,0.313l0.072,0.179c0.05,0.128,0.096,0.256,0.139,0.386l0.03,0.084c-4.561,2.68-7.562,7.382-8.065,12.648
	L16.242,25.331z M15.12,5.978c3.123,0.002,6.052,1.504,7.874,4.038l-2.34,0.869c-3.568,1.324-7.492,1.324-11.06,0l-2.341-0.869
	C9.076,7.484,12.001,5.981,15.12,5.978z M5.41,15.688c0-0.801,0.1-1.601,0.296-2.373c4.251,2.561,7.06,6.965,7.589,11.902
	C8.723,24.34,5.415,20.343,5.41,15.688z M16.946,25.223c0.529-4.938,3.338-9.34,7.589-11.902c1.309,5.201-1.851,10.475-7.053,11.782
	C17.308,25.146,17.127,25.188,16.946,25.223z"/>
</svg>
