<?xml version="1.0" encoding="utf-8"?>
<!-- Generator: Adobe Illustrator 16.0.0, SVG Export Plug-In . SVG Version: 6.00 Build 0)  -->
<!DOCTYPE svg PUBLIC "-//W3C//DTD SVG 1.1//EN" "http://www.w3.org/Graphics/SVG/1.1/DTD/svg11.dtd">
<svg version="1.1" id="Layer_1" xmlns="http://www.w3.org/2000/svg" xmlns:xlink="http://www.w3.org/1999/xlink" x="0px" y="0px"
	 width="30px" height="30px" viewBox="0 0 30 30" enable-background="new 0 0 30 30" xml:space="preserve">
<g transform="translate(0,-952.36218)">
	<path d="M15.636,958.362c-3.97,0-7.612,1.333-10.452,3.483c-0.203,0.155-0.245,0.479-0.091,0.681
		c0.154,0.201,0.478,0.245,0.68,0.091c2.677-2.027,6.11-3.288,9.862-3.288s7.185,1.261,9.862,3.288
		c0.201,0.154,0.526,0.11,0.681-0.091c0.154-0.202,0.111-0.525-0.092-0.681C23.245,959.695,19.604,958.362,15.636,958.362z
		 M15.636,962.956c-2.844,0-5.496,0.862-7.558,2.525c-0.227,0.146-0.284,0.5-0.114,0.71c0.17,0.211,0.528,0.23,0.719,0.038
		c1.873-1.511,4.304-2.305,6.953-2.305c2.647,0,5.08,0.793,6.952,2.305c0.191,0.192,0.549,0.173,0.718-0.038
		c0.171-0.209,0.113-0.563-0.113-0.71C21.132,963.818,18.479,962.956,15.636,962.956L15.636,962.956z M15.636,967.31
		c-1.737,0-3.388,0.543-4.656,1.55c-0.199,0.158-0.238,0.482-0.079,0.684c0.159,0.199,0.484,0.237,0.684,0.078
		c1.083-0.857,2.519-1.345,4.051-1.345c1.531,0,2.966,0.487,4.05,1.345c0.199,0.159,0.527,0.121,0.685-0.078
		c0.159-0.201,0.12-0.527-0.08-0.684C19.021,967.854,17.371,967.31,15.636,967.31L15.636,967.31z M15.636,971.421
		c-1.331,0-2.419,1.09-2.419,2.418c0,1.33,1.089,2.42,2.419,2.42c1.329,0,2.418-1.09,2.418-2.42
		C18.054,972.511,16.965,971.421,15.636,971.421L15.636,971.421z M15.636,972.388c0.808,0,1.45,0.646,1.45,1.451
		c0,0.807-0.645,1.451-1.45,1.451c-0.808,0-1.452-0.645-1.452-1.451C14.184,973.033,14.828,972.388,15.636,972.388L15.636,972.388z"
		/>
</g>
</svg>
